0
SECTION
2
HEADER
9
$INSUNITS
70
4
0
ENDSEC
0
SECTION
2
TABLES
0
TABLE
2
LTYPE
0
LTYPE
72
65
70
64
2
CONTINUOUS
3
______
73
0
40
0
0
ENDTAB
0
TABLE
2
LAYER
0
ENDTAB
0
ENDSEC
0
SECTION
2
ENTITIES
0
LINE
8
0
10
93
20
-157
11
107
21
-157
0
LINE
8
0
10
107
20
-157
11
107
21
-143
0
LINE
8
0
10
107
20
-143
11
93
21
-143
0
LINE
8
0
10
93
20
-143
11
93
21
-157
0
LINE
8
0
10
93
20
-139.25
11
107
21
-139.25
0
LINE
8
0
10
107
20
-139.25
11
107
21
-125.25
0
LINE
8
0
10
107
20
-125.25
11
93
21
-125.25
0
LINE
8
0
10
93
20
-125.25
11
93
21
-139.25
0
LINE
8
0
10
93
20
-121.5
11
107
21
-121.5
0
LINE
8
0
10
107
20
-121.5
11
107
21
-107.5
0
LINE
8
0
10
107
20
-107.5
11
93
21
-107.5
0
LINE
8
0
10
93
20
-107.5
11
93
21
-121.5
0
LINE
8
0
10
111.75
20
-149
11
125.75
21
-149
0
LINE
8
0
10
125.75
20
-149
11
125.75
21
-135
0
LINE
8
0
10
125.75
20
-135
11
111.75
21
-135
0
LINE
8
0
10
111.75
20
-135
11
111.75
21
-149
0
LINE
8
0
10
111.75
20
-131.25
11
125.75
21
-131.25
0
LINE
8
0
10
125.75
20
-131.25
11
125.75
21
-117.25
0
LINE
8
0
10
125.75
20
-117.25
11
111.75
21
-117.25
0
LINE
8
0
10
111.75
20
-117.25
11
111.75
21
-131.25
0
LINE
8
0
10
111.75
20
-113.5
11
125.75
21
-113.5
0
LINE
8
0
10
125.75
20
-113.5
11
125.75
21
-99.5
0
LINE
8
0
10
125.75
20
-99.5
11
111.75
21
-99.5
0
LINE
8
0
10
111.75
20
-99.5
11
111.75
21
-113.5
0
LINE
8
0
10
130.5
20
-146.5
11
144.5
21
-146.5
0
LINE
8
0
10
144.5
20
-146.5
11
144.5
21
-132.5
0
LINE
8
0
10
144.5
20
-132.5
11
130.5
21
-132.5
0
LINE
8
0
10
130.5
20
-132.5
11
130.5
21
-146.5
0
LINE
8
0
10
130.5
20
-128.75
11
144.5
21
-128.75
0
LINE
8
0
10
144.5
20
-128.75
11
144.5
21
-114.75
0
LINE
8
0
10
144.5
20
-114.75
11
130.5
21
-114.75
0
LINE
8
0
10
130.5
20
-114.75
11
130.5
21
-128.75
0
LINE
8
0
10
130.5
20
-111
11
144.5
21
-111
0
LINE
8
0
10
144.5
20
-111
11
144.5
21
-97
0
LINE
8
0
10
144.5
20
-97
11
130.5
21
-97
0
LINE
8
0
10
130.5
20
-97
11
130.5
21
-111
0
LINE
8
0
10
149.25
20
-149
11
163.25
21
-149
0
LINE
8
0
10
163.25
20
-149
11
163.25
21
-135
0
LINE
8
0
10
163.25
20
-135
11
149.25
21
-135
0
LINE
8
0
10
149.25
20
-135
11
149.25
21
-149
0
LINE
8
0
10
149.25
20
-131.25
11
163.25
21
-131.25
0
LINE
8
0
10
163.25
20
-131.25
11
163.25
21
-117.25
0
LINE
8
0
10
163.25
20
-117.25
11
149.25
21
-117.25
0
LINE
8
0
10
149.25
20
-117.25
11
149.25
21
-131.25
0
LINE
8
0
10
149.25
20
-113.5
11
163.25
21
-113.5
0
LINE
8
0
10
163.25
20
-113.5
11
163.25
21
-99.5
0
LINE
8
0
10
163.25
20
-99.5
11
149.25
21
-99.5
0
LINE
8
0
10
149.25
20
-99.5
11
149.25
21
-113.5
0
LINE
8
0
10
168
20
-150
11
182
21
-150
0
LINE
8
0
10
182
20
-150
11
182
21
-136
0
LINE
8
0
10
182
20
-136
11
168
21
-136
0
LINE
8
0
10
168
20
-136
11
168
21
-150
0
LINE
8
0
10
168
20
-132.25
11
182
21
-132.25
0
LINE
8
0
10
182
20
-132.25
11
182
21
-118.25
0
LINE
8
0
10
182
20
-118.25
11
168
21
-118.25
0
LINE
8
0
10
168
20
-118.25
11
168
21
-132.25
0
LINE
8
0
10
168
20
-114.5
11
182
21
-114.5
0
LINE
8
0
10
182
20
-114.5
11
182
21
-100.5
0
LINE
8
0
10
182
20
-100.5
11
168
21
-100.5
0
LINE
8
0
10
168
20
-100.5
11
168
21
-114.5
0
LINE
8
0
10
156.0223583
20
-171.212302
11
170.0223583
21
-171.212302
0
LINE
8
0
10
170.0223583
20
-171.212302
11
170.0223583
21
-157.212302
0
LINE
8
0
10
170.0223583
20
-157.212302
11
156.0223583
21
-157.212302
0
LINE
8
0
10
156.0223583
20
-157.212302
11
156.0223583
21
-171.212302
0
LINE
8
0
10
181.1321705
20
-172.93209
11
194.2878671
21
-177.720372
0
LINE
8
0
10
194.2878671
20
-177.720372
11
199.0761491
21
-164.5646754
0
LINE
8
0
10
199.0761491
20
-164.5646754
11
185.9204525
21
-159.7763934
0
LINE
8
0
10
185.9204525
20
-159.7763934
11
181.1321705
21
-172.93209
0
LINE
8
0
10
208.5226098
20
-182.2238036
11
221.2109188
21
-188.1404592
0
LINE
8
0
10
221.2109188
20
-188.1404592
11
227.1275744
21
-175.4521502
0
LINE
8
0
10
227.1275744
20
-175.4521502
11
214.4392654
21
-169.5354946
0
LINE
8
0
10
214.4392654
20
-169.5354946
11
208.5226098
21
-182.2238036
0
ENDSEC
0
EOF