0
SECTION
2
HEADER
9
$INSUNITS
70
4
0
ENDSEC
0
SECTION
2
TABLES
0
TABLE
2
LTYPE
0
LTYPE
72
65
70
64
2
CONTINUOUS
3
______
73
0
40
0
0
ENDTAB
0
TABLE
2
LAYER
0
ENDTAB
0
ENDSEC
0
SECTION
2
ENTITIES
0
LINE
8
0
10
93
20
-157
11
107
21
-157
0
LINE
8
0
10
107
20
-157
11
107
21
-143
0
LINE
8
0
10
107
20
-143
11
93
21
-143
0
LINE
8
0
10
93
20
-143
11
93
21
-157
0
LINE
8
0
10
93
20
-138.25
11
107
21
-138.25
0
LINE
8
0
10
107
20
-138.25
11
107
21
-124.25
0
LINE
8
0
10
107
20
-124.25
11
93
21
-124.25
0
LINE
8
0
10
93
20
-124.25
11
93
21
-138.25
0
LINE
8
0
10
93
20
-119.5
11
107
21
-119.5
0
LINE
8
0
10
107
20
-119.5
11
107
21
-105.5
0
LINE
8
0
10
107
20
-105.5
11
93
21
-105.5
0
LINE
8
0
10
93
20
-105.5
11
93
21
-119.5
0
LINE
8
0
10
110.75
20
-149
11
124.75
21
-149
0
LINE
8
0
10
124.75
20
-149
11
124.75
21
-135
0
LINE
8
0
10
124.75
20
-135
11
110.75
21
-135
0
LINE
8
0
10
110.75
20
-135
11
110.75
21
-149
0
LINE
8
0
10
110.75
20
-130.25
11
124.75
21
-130.25
0
LINE
8
0
10
124.75
20
-130.25
11
124.75
21
-116.25
0
LINE
8
0
10
124.75
20
-116.25
11
110.75
21
-116.25
0
LINE
8
0
10
110.75
20
-116.25
11
110.75
21
-130.25
0
LINE
8
0
10
110.75
20
-111.5
11
124.75
21
-111.5
0
LINE
8
0
10
124.75
20
-111.5
11
124.75
21
-97.5
0
LINE
8
0
10
124.75
20
-97.5
11
110.75
21
-97.5
0
LINE
8
0
10
110.75
20
-97.5
11
110.75
21
-111.5
0
LINE
8
0
10
128.5
20
-146.5
11
142.5
21
-146.5
0
LINE
8
0
10
142.5
20
-146.5
11
142.5
21
-132.5
0
LINE
8
0
10
142.5
20
-132.5
11
128.5
21
-132.5
0
LINE
8
0
10
128.5
20
-132.5
11
128.5
21
-146.5
0
LINE
8
0
10
128.5
20
-127.75
11
142.5
21
-127.75
0
LINE
8
0
10
142.5
20
-127.75
11
142.5
21
-113.75
0
LINE
8
0
10
142.5
20
-113.75
11
128.5
21
-113.75
0
LINE
8
0
10
128.5
20
-113.75
11
128.5
21
-127.75
0
LINE
8
0
10
128.5
20
-109
11
142.5
21
-109
0
LINE
8
0
10
142.5
20
-109
11
142.5
21
-95
0
LINE
8
0
10
142.5
20
-95
11
128.5
21
-95
0
LINE
8
0
10
128.5
20
-95
11
128.5
21
-109
0
LINE
8
0
10
146.25
20
-149
11
160.25
21
-149
0
LINE
8
0
10
160.25
20
-149
11
160.25
21
-135
0
LINE
8
0
10
160.25
20
-135
11
146.25
21
-135
0
LINE
8
0
10
146.25
20
-135
11
146.25
21
-149
0
LINE
8
0
10
146.25
20
-130.25
11
160.25
21
-130.25
0
LINE
8
0
10
160.25
20
-130.25
11
160.25
21
-116.25
0
LINE
8
0
10
160.25
20
-116.25
11
146.25
21
-116.25
0
LINE
8
0
10
146.25
20
-116.25
11
146.25
21
-130.25
0
LINE
8
0
10
146.25
20
-111.5
11
160.25
21
-111.5
0
LINE
8
0
10
160.25
20
-111.5
11
160.25
21
-97.5
0
LINE
8
0
10
160.25
20
-97.5
11
146.25
21
-97.5
0
LINE
8
0
10
146.25
20
-97.5
11
146.25
21
-111.5
0
LINE
8
0
10
164
20
-150
11
178
21
-150
0
LINE
8
0
10
178
20
-150
11
178
21
-136
0
LINE
8
0
10
178
20
-136
11
164
21
-136
0
LINE
8
0
10
164
20
-136
11
164
21
-150
0
LINE
8
0
10
164
20
-131.25
11
178
21
-131.25
0
LINE
8
0
10
178
20
-131.25
11
178
21
-117.25
0
LINE
8
0
10
178
20
-117.25
11
164
21
-117.25
0
LINE
8
0
10
164
20
-117.25
11
164
21
-131.25
0
LINE
8
0
10
164
20
-112.5
11
178
21
-112.5
0
LINE
8
0
10
178
20
-112.5
11
178
21
-98.5
0
LINE
8
0
10
178
20
-98.5
11
164
21
-98.5
0
LINE
8
0
10
164
20
-98.5
11
164
21
-112.5
0
LINE
8
0
10
153.0223583
20
-170.212302
11
167.0223583
21
-170.212302
0
LINE
8
0
10
167.0223583
20
-170.212302
11
167.0223583
21
-156.212302
0
LINE
8
0
10
167.0223583
20
-156.212302
11
153.0223583
21
-156.212302
0
LINE
8
0
10
153.0223583
20
-156.212302
11
153.0223583
21
-170.212302
0
LINE
8
0
10
178.1321705
20
-171.93209
11
191.2878671
21
-176.720372
0
LINE
8
0
10
191.2878671
20
-176.720372
11
196.0761491
21
-163.5646754
0
LINE
8
0
10
196.0761491
20
-163.5646754
11
182.9204525
21
-158.7763934
0
LINE
8
0
10
182.9204525
20
-158.7763934
11
178.1321705
21
-171.93209
0
LINE
8
0
10
205.5226098
20
-181.2238036
11
218.2109188
21
-187.1404592
0
LINE
8
0
10
218.2109188
20
-187.1404592
11
224.1275744
21
-174.4521502
0
LINE
8
0
10
224.1275744
20
-174.4521502
11
211.4392654
21
-168.5354946
0
LINE
8
0
10
211.4392654
20
-168.5354946
11
205.5226098
21
-181.2238036
0
ENDSEC
0
EOF