0
SECTION
2
HEADER
9
$INSUNITS
70
4
0
ENDSEC
0
SECTION
2
TABLES
0
TABLE
2
LTYPE
0
LTYPE
72
65
70
64
2
CONTINUOUS
3
______
73
0
40
0
0
ENDTAB
0
TABLE
2
LAYER
0
ENDTAB
0
ENDSEC
0
SECTION
2
ENTITIES
0
LINE
8
0
10
-8.5
20
-9
11
8.5
21
-9
0
LINE
8
0
10
9.5
20
-8
11
9.5
21
-2
0
LINE
8
0
10
-9.5
20
-8
11
-9.5
21
42
0
LINE
8
0
10
7.5
20
43
11
-8.5
21
43
0
LINE
8
0
10
10.5
20
-1
11
26.5
21
-1
0
LINE
8
0
10
27.5
20
0
11
27.5
21
0.5
0
LINE
8
0
10
25.5
20
51
11
9.5
21
51
0
LINE
8
0
10
8.5
20
50
11
8.5
21
44
0
LINE
8
0
10
28.5
20
1.5
11
43.5
21
1.5
0
LINE
8
0
10
45.5
20
52
11
45.5
21
52.5
0
LINE
8
0
10
44.5
20
53.5
11
27.5
21
53.5
0
LINE
8
0
10
26.5
20
52.5
11
26.5
21
52
0
LINE
8
0
10
44.5
20
0.5
11
44.5
21
0
0
LINE
8
0
10
63.5
20
50
11
63.5
21
51
0
LINE
8
0
10
63.5
20
51
11
46.5
21
51
0
LINE
8
0
10
63.5
20
50
11
106.0913952
21
50
0
LINE
8
0
10
52.2723583
20
-23.962302
11
69.2004784
21
-23.962302
0
LINE
8
0
10
51.2723583
20
-20.7161025
11
51.2723583
21
-22.962302
0
LINE
8
0
10
76.8855114
20
-25.0837211
11
92.7633658
21
-30.8627875
0
LINE
8
0
10
105.748796
20
-30.2647893
11
120.9287295
21
-37.3433086
0
LINE
8
0
10
122.2576556
20
-36.8596191
11
129.0195477
21
-22.3586945
0
LINE
8
0
10
128.5358582
20
-21.0297684
11
113.6468005
21
-14.0868868
0
ARC
8
0
10
8.5
20
-8
40
1
50
270
51
0
0
ARC
8
0
10
10.5
20
-2
40
1
50
90
51
180
0
ARC
8
0
10
26.5
20
0
40
1
50
270
51
0
0
ARC
8
0
10
28.5
20
0.5
40
1
50
90
51
180
0
ARC
8
0
10
43.5
20
0.5
40
1
50
0
51
90
0
ARC
8
0
10
45.5
20
0
40
1
50
180
51
246.5330383
0
ARC
8
0
10
46.5
20
52
40
1
50
180
51
270
0
ARC
8
0
10
44.5
20
52.5
40
1
50
0
51
90
0
ARC
8
0
10
27.5
20
52.5
40
1
50
90
51
180
0
ARC
8
0
10
25.5
20
52
40
1
50
270
51
0
0
ARC
8
0
10
9.5
20
50
40
1
50
90
51
180
0
ARC
8
0
10
7.5
20
44
40
1
50
270
51
0
0
ARC
8
0
10
-8.5
20
42
40
1
50
90
51
180
0
ARC
8
0
10
-8.5
20
-8
40
1
50
180
51
270
0
ARC
8
0
10
52.2723583
20
-22.962302
40
1
50
180
51
270
0
ARC
8
0
10
121.3513478
20
-36.4370008
40
1
50
244.9999983
51
334.9999983
0
ARC
8
0
10
128.1132399
20
-21.9360762
40
1
50
334.9999983
51
64.9999983
0
ARC
8
0
10
93.1053859
20
-29.9230949
40
1
50
250.0000019
51
296.3167207
0
LINE
8
0
10
45.6627129
20
-1.551693
11
51.2315116
21
-20.4332158
0
LINE
8
0
10
69.3434991
20
-23.9725823
11
76.686512
21
-25.033694
0
LINE
8
0
10
93.5487187
20
-30.819452
11
105.2710819
21
-30.172616
0
LINE
8
0
10
113.0739944
20
-13.2761317
11
107.0868196
21
49.0955527
0
ARC
8
0
10
44.7035596
20
-1.8345797
40
1
50
16.4325683
51
66.5330383
0
ARC
8
0
10
50.2723583
20
-20.7161025
40
1
50
0
51
16.4325683
0
ARC
8
0
10
69.2004784
20
-24.962302
40
1
50
81.777321
51
90
0
ARC
8
0
10
76.5434913
20
-26.0234137
40
1
50
70.0000019
51
81.777321
0
ARC
8
0
10
105.3261777
20
-31.1710971
40
1
50
64.9999983
51
93.158356
0
ARC
8
0
10
114.0694188
20
-13.180579
40
1
50
185.4831318
51
244.9999983
0
ARC
8
0
10
106.0913952
20
49
40
1
50
5.4831318
51
90
0
ENDSEC
0
EOF