0
SECTION
2
HEADER
9
$INSUNITS
70
4
0
ENDSEC
0
SECTION
2
TABLES
0
TABLE
2
LTYPE
0
LTYPE
72
65
70
64
2
CONTINUOUS
3
______
73
0
40
0
0
ENDTAB
0
TABLE
2
LAYER
0
ENDTAB
0
ENDSEC
0
SECTION
2
ENTITIES
0
LINE
8
0
10
231.7679264
20
-172.6345516
11
212.6413566
21
-163.5425547
0
LINE
8
0
10
211.5
20
-161.7362514
11
211.5
21
-94.5
0
LINE
8
0
10
127.5
20
-92.5
11
209.5
21
-92.5
0
LINE
8
0
10
125.5
20
-94.5
11
125.5
21
-95
0
LINE
8
0
10
125.5
20
-95
11
108.75
21
-95
0
LINE
8
0
10
106.75
20
-97
11
106.75
21
-101
0
LINE
8
0
10
104.75
20
-103
11
90
21
-103
0
LINE
8
0
10
88
20
-105
11
88
21
-159.5
0
LINE
8
0
10
90
20
-161.5
11
110
21
-161.5
0
LINE
8
0
10
112
20
-159.5
11
112
21
-155.4998617
0
LINE
8
0
10
113.9998618
20
-153.4998617
11
149.0222201
21
-153.4974403
0
LINE
8
0
10
151.0223583
20
-155.4974403
11
151.0223583
21
-173.712302
0
LINE
8
0
10
153.0223583
20
-175.712302
11
174.6784621
21
-175.712302
0
LINE
8
0
10
175.3465031
20
-175.8271704
11
197.4060367
21
-183.6444884
0
LINE
8
0
10
197.4877649
20
-183.675477
11
222.0806311
21
-193.6202176
0
LINE
8
0
10
224.6430158
20
-192.6113112
11
232.7218986
21
-175.2860914
0
ARC
8
0
10
213.5
20
-161.7362514
40
2
50
180
51
244.5754779
0
ARC
8
0
10
209.5
20
-94.5
40
2
50
0
51
90
0
ARC
8
0
10
127.5
20
-94.5
40
2
50
90
51
180
0
ARC
8
0
10
108.75
20
-97
40
2
50
90
51
180
0
ARC
8
0
10
104.75
20
-101
40
2
50
270
51
0
0
ARC
8
0
10
90
20
-105
40
2
50
90
51
180
0
ARC
8
0
10
90
20
-159.5
40
2
50
180
51
270
0
ARC
8
0
10
110
20
-159.5
40
2
50
270
51
0
0
ARC
8
0
10
114
20
-155.4998617
40
2
50
90.0039591
51
180
0
ARC
8
0
10
149.0223583
20
-155.4974403
40
2
50
0
51
90.0039591
0
ARC
8
0
10
153.0223583
20
-173.712302
40
2
50
180
51
270
0
ARC
8
0
10
174.6784621
20
-177.712302
40
2
50
70.4870137
51
90
0
ARC
8
0
10
196.7379957
20
-185.52962
40
2
50
67.9828197
51
70.4870137
0
ARC
8
0
10
222.8304003
20
-191.7660746
40
2
50
247.9828197
51
334.9999983
0
ARC
8
0
10
230.909283
20
-174.4408548
40
2
50
334.9999983
51
64.5754779
0
ENDSEC
0
EOF