0
SECTION
2
HEADER
9
$INSUNITS
70
4
0
ENDSEC
0
SECTION
2
TABLES
0
TABLE
2
LTYPE
0
LTYPE
72
65
70
64
2
CONTINUOUS
3
______
73
0
40
0
0
ENDTAB
0
TABLE
2
LAYER
0
ENDTAB
0
ENDSEC
0
SECTION
2
ENTITIES
0
LINE
8
0
10
-9
20
9
11
9
21
9
0
LINE
8
0
10
9
20
9
11
9
21
-9
0
LINE
8
0
10
9
20
-9
11
-9
21
-9
0
LINE
8
0
10
-9
20
-9
11
-9
21
9
0
LINE
8
0
10
-9
20
28
11
9
21
28
0
LINE
8
0
10
9
20
28
11
9
21
10
0
LINE
8
0
10
9
20
10
11
-9
21
10
0
LINE
8
0
10
-9
20
10
11
-9
21
28
0
LINE
8
0
10
-9
20
47
11
9
21
47
0
LINE
8
0
10
9
20
47
11
9
21
29
0
LINE
8
0
10
9
20
29
11
-9
21
29
0
LINE
8
0
10
-9
20
29
11
-9
21
47
0
LINE
8
0
10
10
20
17
11
28
21
17
0
LINE
8
0
10
28
20
17
11
28
21
-1
0
LINE
8
0
10
28
20
-1
11
10
21
-1
0
LINE
8
0
10
10
20
-1
11
10
21
17
0
LINE
8
0
10
10
20
36
11
28
21
36
0
LINE
8
0
10
28
20
36
11
28
21
18
0
LINE
8
0
10
28
20
18
11
10
21
18
0
LINE
8
0
10
10
20
18
11
10
21
36
0
LINE
8
0
10
10
20
55
11
28
21
55
0
LINE
8
0
10
28
20
55
11
28
21
37
0
LINE
8
0
10
28
20
37
11
10
21
37
0
LINE
8
0
10
10
20
37
11
10
21
55
0
LINE
8
0
10
29
20
19.5
11
47
21
19.5
0
LINE
8
0
10
47
20
19.5
11
47
21
1.5
0
LINE
8
0
10
47
20
1.5
11
29
21
1.5
0
LINE
8
0
10
29
20
1.5
11
29
21
19.5
0
LINE
8
0
10
29
20
38.5
11
47
21
38.5
0
LINE
8
0
10
47
20
38.5
11
47
21
20.5
0
LINE
8
0
10
47
20
20.5
11
29
21
20.5
0
LINE
8
0
10
29
20
20.5
11
29
21
38.5
0
LINE
8
0
10
29
20
57.5
11
47
21
57.5
0
LINE
8
0
10
47
20
57.5
11
47
21
39.5
0
LINE
8
0
10
47
20
39.5
11
29
21
39.5
0
LINE
8
0
10
29
20
39.5
11
29
21
57.5
0
LINE
8
0
10
48
20
17
11
66
21
17
0
LINE
8
0
10
66
20
17
11
66
21
-1
0
LINE
8
0
10
66
20
-1
11
48
21
-1
0
LINE
8
0
10
48
20
-1
11
48
21
17
0
LINE
8
0
10
48
20
36
11
66
21
36
0
LINE
8
0
10
66
20
36
11
66
21
18
0
LINE
8
0
10
66
20
18
11
48
21
18
0
LINE
8
0
10
48
20
18
11
48
21
36
0
LINE
8
0
10
48
20
55
11
66
21
55
0
LINE
8
0
10
66
20
55
11
66
21
37
0
LINE
8
0
10
66
20
37
11
48
21
37
0
LINE
8
0
10
48
20
37
11
48
21
55
0
LINE
8
0
10
67
20
16
11
85
21
16
0
LINE
8
0
10
85
20
16
11
85
21
-2
0
LINE
8
0
10
85
20
-2
11
67
21
-2
0
LINE
8
0
10
67
20
-2
11
67
21
16
0
LINE
8
0
10
67
20
35
11
85
21
35
0
LINE
8
0
10
85
20
35
11
85
21
17
0
LINE
8
0
10
85
20
17
11
67
21
17
0
LINE
8
0
10
67
20
17
11
67
21
35
0
LINE
8
0
10
67
20
54
11
85
21
54
0
LINE
8
0
10
85
20
54
11
85
21
36
0
LINE
8
0
10
85
20
36
11
67
21
36
0
LINE
8
0
10
67
20
36
11
67
21
54
0
LINE
8
0
10
54.7723583
20
-3.962302
11
72.7723583
21
-3.962302
0
LINE
8
0
10
72.7723583
20
-3.962302
11
72.7723583
21
-21.962302
0
LINE
8
0
10
72.7723583
20
-21.962302
11
54.7723583
21
-21.962302
0
LINE
8
0
10
54.7723583
20
-21.962302
11
54.7723583
21
-3.962302
0
LINE
8
0
10
85.4751075
20
-5.9629678
11
102.3895747
21
-12.1193304
0
LINE
8
0
10
102.3895747
20
-12.1193304
11
96.2332121
21
-29.0337976
0
LINE
8
0
10
96.2332121
20
-29.0337976
11
79.3187449
21
-22.877435
0
LINE
8
0
10
79.3187449
20
-22.877435
11
85.4751075
21
-5.9629678
0
LINE
8
0
10
115.8464821
20
-11.1641026
11
132.1600222
21
-18.7712313
0
LINE
8
0
10
132.1600222
20
-18.7712313
11
124.5528935
21
-35.0847714
0
LINE
8
0
10
124.5528935
20
-35.0847714
11
108.2393534
21
-27.4776427
0
LINE
8
0
10
108.2393534
20
-27.4776427
11
115.8464821
21
-11.1641026
0
ENDSEC
0
EOF