<svg width="141.16mm" height="92.585mm" viewBox="0 0 141.16 92.585" xmlns="http://www.w3.org/2000/svg"><g id="svgGroup" stroke-linecap="round" fill-rule="evenodd" font-size="9pt" stroke="#000" stroke-width="0.25mm" fill="none" style="stroke:#000;stroke-width:0.25mm;fill:none"><path d="M 94.475 63.463 L 111.39 69.619 L 105.233 86.534 L 88.319 80.377 L 94.475 63.463 Z M 63.772 61.462 L 81.772 61.462 L 81.772 79.462 L 63.772 79.462 L 63.772 61.462 Z M 0 48.5 L 18 48.5 L 18 66.5 L 0 66.5 L 0 48.5 Z M 0 29.5 L 18 29.5 L 18 47.5 L 0 47.5 L 0 29.5 Z M 0 10.5 L 18 10.5 L 18 28.5 L 0 28.5 L 0 10.5 Z M 19 40.5 L 37 40.5 L 37 58.5 L 19 58.5 L 19 40.5 Z M 19 21.5 L 37 21.5 L 37 39.5 L 19 39.5 L 19 21.5 Z M 19 2.5 L 37 2.5 L 37 20.5 L 19 20.5 L 19 2.5 Z M 38 38 L 56 38 L 56 56 L 38 56 L 38 38 Z M 38 19 L 56 19 L 56 37 L 38 37 L 38 19 Z M 38 0 L 56 0 L 56 18 L 38 18 L 38 0 Z M 57 40.5 L 75 40.5 L 75 58.5 L 57 58.5 L 57 40.5 Z M 57 21.5 L 75 21.5 L 75 39.5 L 57 39.5 L 57 21.5 Z M 57 2.5 L 75 2.5 L 75 20.5 L 57 20.5 L 57 2.5 Z M 76 41.5 L 94 41.5 L 94 59.5 L 76 59.5 L 76 41.5 Z M 76 22.5 L 94 22.5 L 94 40.5 L 76 40.5 L 76 22.5 Z M 76 3.5 L 94 3.5 L 94 21.5 L 76 21.5 L 76 3.5 Z M 124.846 68.664 L 141.16 76.271 L 133.553 92.585 L 117.239 84.978 L 124.846 68.664 Z" vector-effect="non-scaling-stroke"/></g></svg>